<svg xmlns="http://www.w3.org/2000/svg" width="21" height="21" viewBox="0 0 21 21">
  <path id="Icon_metro-flow-cascade" data-name="Icon metro-flow-cascade" d="M25.186,18.106a4.313,4.313,0,0,0-3.57,1.564H16.163c-1.358,0-2.461-.751-2.461-1.676v-4.3a7.946,7.946,0,0,0,2.461.391h5.453a4.311,4.311,0,0,0,3.57,1.564c2.175,0,3.938-1.2,3.938-2.681s-1.762-2.681-3.937-2.681a4.313,4.313,0,0,0-3.57,1.564H16.163c-1.358,0-2.461-.751-2.461-1.676v-2.6c1.354-.424,2.3-1.35,2.3-2.431,0-1.481-1.762-2.681-3.938-2.681s-3.938,1.2-3.938,2.681c0,1.08.945,2.006,2.3,2.431V17.994c0,2.159,2.571,3.91,5.742,3.91h5.453a4.311,4.311,0,0,0,3.57,1.564c2.175,0,3.938-1.2,3.938-2.681s-1.762-2.681-3.937-2.681Zm0-6.685c1.253,0,2.271.691,2.271,1.547s-1.017,1.547-2.271,1.547-2.272-.694-2.272-1.547,1.017-1.547,2.272-1.547ZM12.061,3.6c1.253,0,2.271.691,2.271,1.547S13.314,6.7,12.061,6.7,9.79,6,9.79,5.149,10.806,3.6,12.061,3.6ZM25.186,22.334c-1.257,0-2.272-.694-2.272-1.547s1.016-1.547,2.272-1.547,2.271.691,2.271,1.547-1.017,1.547-2.271,1.547Z" transform="translate(-8.123 -2.468)"/>
</svg>
