<svg xmlns="http://www.w3.org/2000/svg" width="21.002" height="21.002" viewBox="0 0 21.002 21.002">
  <g id="website_support" data-name="website support" transform="translate(-2 -2)">
    <path id="Path_7" data-name="Path 7" d="M21.952,2H3.05A1.053,1.053,0,0,0,2,3.05V16a1.053,1.053,0,0,0,1.05,1.05H6.694a.181.181,0,0,1-.014.137L5.8,18.655a1.05,1.05,0,0,0,.161,1.285l1.2,1.2a1.05,1.05,0,0,0,1.285.161l1.467-.882a.205.205,0,0,1,.182,0,.2.2,0,0,1,.119.13l.413,1.659A1.05,1.05,0,0,0,11.647,23h1.708a1.05,1.05,0,0,0,1.019-.795l.413-1.659a.205.205,0,0,1,.126-.133.2.2,0,0,1,.175.007l1.467.882a1.055,1.055,0,0,0,1.285-.161l1.2-1.2a1.05,1.05,0,0,0,.161-1.285l-.882-1.467a.2.2,0,0,1-.014-.137h3.644A1.053,1.053,0,0,0,23,16V3.05A1.053,1.053,0,0,0,21.952,2ZM20.2,15.455a.35.35,0,0,1-.266.34l-1.659.413a.908.908,0,0,0-.609.539.9.9,0,0,0,.056.8l.879,1.467a.345.345,0,0,1-.053.427L17.342,20.65a.345.345,0,0,1-.427.053l-1.467-.879a.915.915,0,0,0-1.341.553l-.413,1.659a.35.35,0,0,1-.34.266H11.647a.35.35,0,0,1-.34-.266l-.413-1.659a.908.908,0,0,0-.539-.609.932.932,0,0,0-.35-.07.863.863,0,0,0-.452.126L8.087,20.7a.345.345,0,0,1-.427-.053L6.452,19.442a.345.345,0,0,1-.053-.427l.879-1.467a.915.915,0,0,0-.553-1.341l-1.659-.413a.35.35,0,0,1-.266-.34V13.747a.35.35,0,0,1,.266-.34l1.659-.413a.908.908,0,0,0,.609-.539.9.9,0,0,0-.056-.8L6.4,10.187a.345.345,0,0,1,.053-.427L7.66,8.553A.345.345,0,0,1,8.087,8.5l1.467.879a.915.915,0,0,0,1.341-.553l.413-1.659a.35.35,0,0,1,.34-.266h1.708a.35.35,0,0,1,.34.266l.413,1.659a.908.908,0,0,0,.539.609.9.9,0,0,0,.8-.056L16.915,8.5a.35.35,0,0,1,.427.053L18.55,9.76a.345.345,0,0,1,.053.427l-.879,1.467a.915.915,0,0,0,.553,1.341l1.659.413a.35.35,0,0,1,.266.34ZM22.3,16a.35.35,0,0,1-.35.35H20.394a1.047,1.047,0,0,0,.508-.9V13.747a1.05,1.05,0,0,0-.795-1.019l-1.659-.413a.2.2,0,0,1-.119-.088l-.014-.039a.2.2,0,0,1,.007-.175l.882-1.467a1.05,1.05,0,0,0-.161-1.285l-1.2-1.2A1.05,1.05,0,0,0,16.554,7.9l-1.467.882a.205.205,0,0,1-.182,0,.2.2,0,0,1-.119-.13l-.413-1.659A1.05,1.05,0,0,0,13.355,6.2H11.647A1.05,1.05,0,0,0,10.628,7l-.413,1.659a.205.205,0,0,1-.126.133.2.2,0,0,1-.175-.007L8.448,7.9a1.055,1.055,0,0,0-1.285.161l-1.2,1.2A1.05,1.05,0,0,0,5.8,10.548l.882,1.467a.205.205,0,0,1,0,.182.2.2,0,0,1-.13.119l-1.659.413A1.05,1.05,0,0,0,4.1,13.747v1.708a1.047,1.047,0,0,0,.508.9H3.05A.35.35,0,0,1,2.7,16V5.5H22.3Zm0-11.2H2.7V3.05a.35.35,0,0,1,.35-.35h18.9a.35.35,0,0,1,.35.35Z"/>
    <path id="Path_8" data-name="Path 8" d="M6,6h.7v.7H6Z" transform="translate(-2.6 -2.6)"/>
    <path id="Path_9" data-name="Path 9" d="M10,6h.7v.7H10Z" transform="translate(-5.2 -2.6)"/>
    <path id="Path_10" data-name="Path 10" d="M14,6h.7v.7H14Z" transform="translate(-7.8 -2.6)"/>
    <path id="Path_11" data-name="Path 11" d="M24.2,26a4.2,4.2,0,1,0,4.2,4.2A4.2,4.2,0,0,0,24.2,26Zm0,7.7a3.5,3.5,0,1,1,3.5-3.5A3.5,3.5,0,0,1,24.2,33.7Z" transform="translate(-11.699 -15.599)"/>
    <path id="Path_12" data-name="Path 12" d="M31,37h.7v.7H31Z" transform="translate(-18.849 -22.749)"/>
    <path id="Path_13" data-name="Path 13" d="M35,37h.7v.7H35Z" transform="translate(-21.449 -22.749)"/>
    <path id="Path_14" data-name="Path 14" d="M27,37h.7v.7H27Z" transform="translate(-16.249 -22.749)"/>
  </g>
</svg>
