<svg id="aim" xmlns="http://www.w3.org/2000/svg" width="21" height="21" viewBox="0 0 21 21">
  <path id="Path_1" data-name="Path 1" d="M10.5,19A8.5,8.5,0,1,1,19,10.5,8.51,8.51,0,0,1,10.5,19Zm0-15.725A7.225,7.225,0,1,0,17.725,10.5,7.233,7.233,0,0,0,10.5,3.275Z"/>
  <path id="Path_2" data-name="Path 2" d="M12,5a.75.75,0,0,1-.75-.75V.75a.75.75,0,0,1,1.5,0v3.5A.75.75,0,0,1,12,5Z" transform="translate(-1.5)"/>
  <path id="Path_3" data-name="Path 3" d="M23.25,12.75h-3.5a.75.75,0,0,1,0-1.5h3.5a.75.75,0,0,1,0,1.5Z" transform="translate(-3 -1.5)"/>
  <path id="Path_4" data-name="Path 4" d="M12,24a.75.75,0,0,1-.75-.75v-3.5a.75.75,0,0,1,1.5,0v3.5A.75.75,0,0,1,12,24Z" transform="translate(-1.5 -3)"/>
  <path id="Path_5" data-name="Path 5" d="M4.25,12.75H.75a.75.75,0,0,1,0-1.5h3.5a.75.75,0,0,1,0,1.5Z" transform="translate(0 -1.5)"/>
  <path id="Path_6" data-name="Path 6" d="M12,15a3,3,0,1,1,3-3A3,3,0,0,1,12,15Zm0-4.5A1.5,1.5,0,1,0,13.5,12,1.5,1.5,0,0,0,12,10.5Z" transform="translate(-1.5 -1.5)"/>
</svg>
