<svg xmlns="http://www.w3.org/2000/svg" width="23" height="23" viewBox="0 0 23 23">
  <g id="Icon_feather-settings" data-name="Icon feather-settings" transform="translate(-0.5 -0.5)">
    <path id="Path_15" data-name="Path 15" d="M22.5,18A4.5,4.5,0,1,1,18,13.5,4.5,4.5,0,0,1,22.5,18Z" transform="translate(-6 -6)" fill="none" stroke="#000" stroke-linecap="round" stroke-linejoin="round" stroke-width="2"/>
    <path id="Path_16" data-name="Path 16" d="M19.064,14.864a1.575,1.575,0,0,0,.315,1.737l.057.057a1.91,1.91,0,1,1-2.7,2.7l-.057-.057a1.588,1.588,0,0,0-2.692,1.126v.162a1.909,1.909,0,0,1-3.818,0v-.086a1.575,1.575,0,0,0-1.031-1.441,1.575,1.575,0,0,0-1.737.315l-.057.057a1.91,1.91,0,1,1-2.7-2.7l.057-.057a1.588,1.588,0,0,0-1.126-2.692H3.409a1.909,1.909,0,1,1,0-3.818h.086A1.575,1.575,0,0,0,4.936,9.136,1.575,1.575,0,0,0,4.621,7.4l-.057-.057a1.91,1.91,0,1,1,2.7-2.7l.057.057a1.575,1.575,0,0,0,1.737.315h.076a1.575,1.575,0,0,0,.955-1.441V3.409a1.909,1.909,0,0,1,3.818,0V3.5A1.588,1.588,0,0,0,16.6,4.621l.057-.057a1.91,1.91,0,1,1,2.7,2.7l-.057.057a1.575,1.575,0,0,0-.315,1.737v.076a1.575,1.575,0,0,0,1.441.955h.162a1.909,1.909,0,0,1,0,3.818H20.5a1.575,1.575,0,0,0-1.441.955Z" transform="translate(0 0)" fill="none" stroke="#000" stroke-linecap="round" stroke-linejoin="round" stroke-width="2"/>
  </g>
</svg>
